<?xml version="1.0" encoding="utf-8" standalone="no"?>
<!DOCTYPE svg PUBLIC "-//W3C//DTD SVG 1.1//EN"
  "http://www.w3.org/Graphics/SVG/1.1/DTD/svg11.dtd">
<svg xmlns:xlink="http://www.w3.org/1999/xlink" width="278.708961pt" height="262.757617pt" viewBox="0 0 278.708961 262.757617" xmlns="http://www.w3.org/2000/svg" version="1.1">
 <metadata>
  <rdf:RDF xmlns:dc="http://purl.org/dc/elements/1.1/" xmlns:cc="http://creativecommons.org/ns#" xmlns:rdf="http://www.w3.org/1999/02/22-rdf-syntax-ns#">
   <cc:Work>
    <dc:type rdf:resource="http://purl.org/dc/dcmitype/StillImage"/>
    <dc:date>2026-06-28T14:08:09.321376</dc:date>
    <dc:format>image/svg+xml</dc:format>
    <dc:creator>
     <cc:Agent>
      <dc:title>Matplotlib v3.11.0, https://matplotlib.org/</dc:title>
     </cc:Agent>
    </dc:creator>
   </cc:Work>
  </rdf:RDF>
 </metadata>
 <defs>
  <style type="text/css">*{stroke-linejoin: round; stroke-linecap: butt}</style>
 </defs>
 <g id="figure_1">
  <g id="patch_1">
   <path d="M 0 262.757617 
L 278.708961 262.757617 
L 278.708961 0 
L 0 0 
z
" style="fill: #f9f9f9"/>
  </g>
  <g id="axes_1">
   <g id="patch_2">
    <path d="M 251.472859 145.178027 
C 251.472859 130.683112 248.617677 116.329142 243.070713 102.937587 
C 237.523749 89.546032 229.392879 77.377324 219.143426 67.127871 
C 208.893973 56.878418 196.725265 48.747547 183.33371 43.200583 
C 169.942154 37.65362 155.588184 34.798438 141.093269 34.798438 
C 126.598354 34.798438 112.244384 37.65362 98.852829 43.200583 
C 85.461274 48.747547 73.292566 56.878418 63.043113 67.127871 
C 52.79366 77.377324 44.662789 89.546032 39.115826 102.937587 
C 33.568862 116.329142 30.71368 130.683112 30.71368 145.178027 
C 30.71368 159.672942 33.568862 174.026912 39.115826 187.418468 
C 44.662789 200.810023 52.79366 212.978731 63.043113 223.228184 
C 73.292566 233.477636 85.461274 241.608507 98.852829 247.155471 
C 112.244384 252.702435 126.598354 255.557617 141.093269 255.557617 
C 155.588184 255.557617 169.942154 252.702435 183.33371 247.155471 
C 196.725265 241.608507 208.893973 233.477636 219.143426 223.228184 
C 229.392879 212.978731 237.523749 200.810023 243.070713 187.418468 
C 248.617677 174.026912 251.472859 159.672942 251.472859 145.178027 
M 141.093269 145.178027 
C 141.093269 145.178027 141.093269 145.178027 141.093269 145.178027 
C 141.093269 145.178027 141.093269 145.178027 141.093269 145.178027 
C 141.093269 145.178027 141.093269 145.178027 141.093269 145.178027 
C 141.093269 145.178027 141.093269 145.178027 141.093269 145.178027 
C 141.093269 145.178027 141.093269 145.178027 141.093269 145.178027 
C 141.093269 145.178027 141.093269 145.178027 141.093269 145.178027 
C 141.093269 145.178027 141.093269 145.178027 141.093269 145.178027 
C 141.093269 145.178027 141.093269 145.178027 141.093269 145.178027 
C 141.093269 145.178027 141.093269 145.178027 141.093269 145.178027 
C 141.093269 145.178027 141.093269 145.178027 141.093269 145.178027 
C 141.093269 145.178027 141.093269 145.178027 141.093269 145.178027 
C 141.093269 145.178027 141.093269 145.178027 141.093269 145.178027 
C 141.093269 145.178027 141.093269 145.178027 141.093269 145.178027 
C 141.093269 145.178027 141.093269 145.178027 141.093269 145.178027 
C 141.093269 145.178027 141.093269 145.178027 141.093269 145.178027 
C 141.093269 145.178027 141.093269 145.178027 141.093269 145.178027 
z
" style="fill: #f9f9f9"/>
   </g>
   <g id="patch_3">
    <path d="M 141.093269 87.083506 
L 195.626894 127.458978 
L 172.852463 188.890807 
L 82.11191 226.358904 
L 79.591459 125.194878 
z
" clip-path="url(#p4554534b58)" style="fill: #4c72b0; opacity: 0.25; stroke: #4c72b0; stroke-linejoin: miter"/>
   </g>
   <g id="matplotlib.axis_1">
    <g id="xtick_1">
     <g id="line2d_1">
      <path d="M 141.093269 145.178027 
L 141.093269 34.798437 
" clip-path="url(#p4554534b58)" style="fill: none; stroke: #cccccc; stroke-opacity: 0.5; stroke-width: 0.8; stroke-linecap: square"/>
     </g>
     <g id="text_1">
      <!-- Gods -->
      <g transform="translate(132.194519 22.61707) scale(0.07 -0.07)">
       <defs>
        <path id="DejaVuSans-2a" d="M 3809 666 
L 3809 1919 
L 2778 1919 
L 2778 2438 
L 4434 2438 
L 4434 434 
Q 4069 175 3628 42 
Q 3188 -91 2688 -91 
Q 1594 -91 976 548 
Q 359 1188 359 2328 
Q 359 3472 976 4111 
Q 1594 4750 2688 4750 
Q 3144 4750 3555 4637 
Q 3966 4525 4313 4306 
L 4313 3634 
Q 3963 3931 3569 4081 
Q 3175 4231 2741 4231 
Q 1884 4231 1454 3753 
Q 1025 3275 1025 2328 
Q 1025 1384 1454 906 
Q 1884 428 2741 428 
Q 3075 428 3337 486 
Q 3600 544 3809 666 
z
" transform="scale(0.015625)"/>
        <path id="DejaVuSans-52" d="M 1959 3097 
Q 1497 3097 1228 2736 
Q 959 2375 959 1747 
Q 959 1119 1226 758 
Q 1494 397 1959 397 
Q 2419 397 2687 759 
Q 2956 1122 2956 1747 
Q 2956 2369 2687 2733 
Q 2419 3097 1959 3097 
z
M 1959 3584 
Q 2709 3584 3137 3096 
Q 3566 2609 3566 1747 
Q 3566 888 3137 398 
Q 2709 -91 1959 -91 
Q 1206 -91 779 398 
Q 353 888 353 1747 
Q 353 2609 779 3096 
Q 1206 3584 1959 3584 
z
" transform="scale(0.015625)"/>
        <path id="DejaVuSans-47" d="M 2906 2969 
L 2906 4863 
L 3481 4863 
L 3481 0 
L 2906 0 
L 2906 525 
Q 2725 213 2448 61 
Q 2172 -91 1784 -91 
Q 1150 -91 751 415 
Q 353 922 353 1747 
Q 353 2572 751 3078 
Q 1150 3584 1784 3584 
Q 2172 3584 2448 3432 
Q 2725 3281 2906 2969 
z
M 947 1747 
Q 947 1113 1208 752 
Q 1469 391 1925 391 
Q 2381 391 2643 752 
Q 2906 1113 2906 1747 
Q 2906 2381 2643 2742 
Q 2381 3103 1925 3103 
Q 1469 3103 1208 2742 
Q 947 2381 947 1747 
z
" transform="scale(0.015625)"/>
        <path id="DejaVuSans-56" d="M 2834 3397 
L 2834 2853 
Q 2591 2978 2328 3040 
Q 2066 3103 1784 3103 
Q 1356 3103 1142 2972 
Q 928 2841 928 2578 
Q 928 2378 1081 2264 
Q 1234 2150 1697 2047 
L 1894 2003 
Q 2506 1872 2764 1633 
Q 3022 1394 3022 966 
Q 3022 478 2636 193 
Q 2250 -91 1575 -91 
Q 1294 -91 989 -36 
Q 684 19 347 128 
L 347 722 
Q 666 556 975 473 
Q 1284 391 1588 391 
Q 1994 391 2212 530 
Q 2431 669 2431 922 
Q 2431 1156 2273 1281 
Q 2116 1406 1581 1522 
L 1381 1569 
Q 847 1681 609 1914 
Q 372 2147 372 2553 
Q 372 3047 722 3315 
Q 1072 3584 1716 3584 
Q 2034 3584 2315 3537 
Q 2597 3491 2834 3397 
z
" transform="scale(0.015625)"/>
       </defs>
       <use xlink:href="#DejaVuSans-2a"/>
       <use xlink:href="#DejaVuSans-52" transform="translate(77.484375 0)"/>
       <use xlink:href="#DejaVuSans-47" transform="translate(138.671875 0)"/>
       <use xlink:href="#DejaVuSans-56" transform="translate(202.15625 0)"/>
      </g>
     </g>
    </g>
    <g id="xtick_2">
     <g id="line2d_2">
      <path d="M 141.093269 145.178027 
L 246.070498 111.068858 
" clip-path="url(#p4554534b58)" style="fill: none; stroke: #cccccc; stroke-opacity: 0.5; stroke-width: 0.8; stroke-linecap: square"/>
     </g>
     <g id="text_2">
      <!-- Stories -->
      <g transform="translate(247.261617 108.561253) scale(0.07 -0.07)">
       <defs>
        <path id="DejaVuSans-36" d="M 3425 4513 
L 3425 3897 
Q 3066 4069 2747 4153 
Q 2428 4238 2131 4238 
Q 1616 4238 1336 4038 
Q 1056 3838 1056 3469 
Q 1056 3159 1242 3001 
Q 1428 2844 1947 2747 
L 2328 2669 
Q 3034 2534 3370 2195 
Q 3706 1856 3706 1288 
Q 3706 609 3251 259 
Q 2797 -91 1919 -91 
Q 1588 -91 1214 -16 
Q 841 59 441 206 
L 441 856 
Q 825 641 1194 531 
Q 1563 422 1919 422 
Q 2459 422 2753 634 
Q 3047 847 3047 1241 
Q 3047 1584 2836 1778 
Q 2625 1972 2144 2069 
L 1759 2144 
Q 1053 2284 737 2584 
Q 422 2884 422 3419 
Q 422 4038 858 4394 
Q 1294 4750 2059 4750 
Q 2388 4750 2728 4690 
Q 3069 4631 3425 4513 
z
" transform="scale(0.015625)"/>
        <path id="DejaVuSans-57" d="M 1172 4494 
L 1172 3500 
L 2356 3500 
L 2356 3053 
L 1172 3053 
L 1172 1153 
Q 1172 725 1289 603 
Q 1406 481 1766 481 
L 2356 481 
L 2356 0 
L 1766 0 
Q 1100 0 847 248 
Q 594 497 594 1153 
L 594 3053 
L 172 3053 
L 172 3500 
L 594 3500 
L 594 4494 
L 1172 4494 
z
" transform="scale(0.015625)"/>
        <path id="DejaVuSans-55" d="M 2631 2963 
Q 2534 3019 2420 3045 
Q 2306 3072 2169 3072 
Q 1681 3072 1420 2755 
Q 1159 2438 1159 1844 
L 1159 0 
L 581 0 
L 581 3500 
L 1159 3500 
L 1159 2956 
Q 1341 3275 1631 3429 
Q 1922 3584 2338 3584 
Q 2397 3584 2469 3576 
Q 2541 3569 2628 3553 
L 2631 2963 
z
" transform="scale(0.015625)"/>
        <path id="DejaVuSans-4c" d="M 603 3500 
L 1178 3500 
L 1178 0 
L 603 0 
L 603 3500 
z
M 603 4863 
L 1178 4863 
L 1178 4134 
L 603 4134 
L 603 4863 
z
" transform="scale(0.015625)"/>
        <path id="DejaVuSans-48" d="M 3597 1894 
L 3597 1613 
L 953 1613 
Q 991 1019 1311 708 
Q 1631 397 2203 397 
Q 2534 397 2845 478 
Q 3156 559 3463 722 
L 3463 178 
Q 3153 47 2828 -22 
Q 2503 -91 2169 -91 
Q 1331 -91 842 396 
Q 353 884 353 1716 
Q 353 2575 817 3079 
Q 1281 3584 2069 3584 
Q 2775 3584 3186 3129 
Q 3597 2675 3597 1894 
z
M 3022 2063 
Q 3016 2534 2758 2815 
Q 2500 3097 2075 3097 
Q 1594 3097 1305 2825 
Q 1016 2553 972 2059 
L 3022 2063 
z
" transform="scale(0.015625)"/>
       </defs>
       <use xlink:href="#DejaVuSans-36"/>
       <use xlink:href="#DejaVuSans-57" transform="translate(63.484375 0)"/>
       <use xlink:href="#DejaVuSans-52" transform="translate(102.6875 0)"/>
       <use xlink:href="#DejaVuSans-55" transform="translate(163.875 0)"/>
       <use xlink:href="#DejaVuSans-4c" transform="translate(204.984375 0)"/>
       <use xlink:href="#DejaVuSans-48" transform="translate(232.765625 0)"/>
       <use xlink:href="#DejaVuSans-56" transform="translate(294.296875 0)"/>
      </g>
     </g>
    </g>
    <g id="xtick_3">
     <g id="line2d_3">
      <path d="M 141.093269 145.178027 
L 205.972764 234.476991 
" clip-path="url(#p4554534b58)" style="fill: none; stroke: #cccccc; stroke-opacity: 0.5; stroke-width: 0.8; stroke-linecap: square"/>
     </g>
     <g id="text_3">
      <!-- Comparisons -->
      <g transform="translate(191.422774 247.621862) scale(0.07 -0.07)">
       <defs>
        <path id="DejaVuSans-26" d="M 4122 4306 
L 4122 3641 
Q 3803 3938 3442 4084 
Q 3081 4231 2675 4231 
Q 1875 4231 1450 3742 
Q 1025 3253 1025 2328 
Q 1025 1406 1450 917 
Q 1875 428 2675 428 
Q 3081 428 3442 575 
Q 3803 722 4122 1019 
L 4122 359 
Q 3791 134 3420 21 
Q 3050 -91 2638 -91 
Q 1578 -91 968 557 
Q 359 1206 359 2328 
Q 359 3453 968 4101 
Q 1578 4750 2638 4750 
Q 3056 4750 3426 4639 
Q 3797 4528 4122 4306 
z
" transform="scale(0.015625)"/>
        <path id="DejaVuSans-50" d="M 3328 2828 
Q 3544 3216 3844 3400 
Q 4144 3584 4550 3584 
Q 5097 3584 5394 3201 
Q 5691 2819 5691 2113 
L 5691 0 
L 5113 0 
L 5113 2094 
Q 5113 2597 4934 2840 
Q 4756 3084 4391 3084 
Q 3944 3084 3684 2787 
Q 3425 2491 3425 1978 
L 3425 0 
L 2847 0 
L 2847 2094 
Q 2847 2600 2669 2842 
Q 2491 3084 2119 3084 
Q 1678 3084 1418 2786 
Q 1159 2488 1159 1978 
L 1159 0 
L 581 0 
L 581 3500 
L 1159 3500 
L 1159 2956 
Q 1356 3278 1631 3431 
Q 1906 3584 2284 3584 
Q 2666 3584 2933 3390 
Q 3200 3197 3328 2828 
z
" transform="scale(0.015625)"/>
        <path id="DejaVuSans-53" d="M 1159 525 
L 1159 -1331 
L 581 -1331 
L 581 3500 
L 1159 3500 
L 1159 2969 
Q 1341 3281 1617 3432 
Q 1894 3584 2278 3584 
Q 2916 3584 3314 3078 
Q 3713 2572 3713 1747 
Q 3713 922 3314 415 
Q 2916 -91 2278 -91 
Q 1894 -91 1617 61 
Q 1341 213 1159 525 
z
M 3116 1747 
Q 3116 2381 2855 2742 
Q 2594 3103 2138 3103 
Q 1681 3103 1420 2742 
Q 1159 2381 1159 1747 
Q 1159 1113 1420 752 
Q 1681 391 2138 391 
Q 2594 391 2855 752 
Q 3116 1113 3116 1747 
z
" transform="scale(0.015625)"/>
        <path id="DejaVuSans-44" d="M 2194 1759 
Q 1497 1759 1228 1600 
Q 959 1441 959 1056 
Q 959 750 1161 570 
Q 1363 391 1709 391 
Q 2188 391 2477 730 
Q 2766 1069 2766 1631 
L 2766 1759 
L 2194 1759 
z
M 3341 1997 
L 3341 0 
L 2766 0 
L 2766 531 
Q 2569 213 2275 61 
Q 1981 -91 1556 -91 
Q 1019 -91 701 211 
Q 384 513 384 1019 
Q 384 1609 779 1909 
Q 1175 2209 1959 2209 
L 2766 2209 
L 2766 2266 
Q 2766 2663 2505 2880 
Q 2244 3097 1772 3097 
Q 1472 3097 1187 3025 
Q 903 2953 641 2809 
L 641 3341 
Q 956 3463 1253 3523 
Q 1550 3584 1831 3584 
Q 2591 3584 2966 3190 
Q 3341 2797 3341 1997 
z
" transform="scale(0.015625)"/>
        <path id="DejaVuSans-51" d="M 3513 2113 
L 3513 0 
L 2938 0 
L 2938 2094 
Q 2938 2591 2744 2837 
Q 2550 3084 2163 3084 
Q 1697 3084 1428 2787 
Q 1159 2491 1159 1978 
L 1159 0 
L 581 0 
L 581 3500 
L 1159 3500 
L 1159 2956 
Q 1366 3272 1645 3428 
Q 1925 3584 2291 3584 
Q 2894 3584 3203 3211 
Q 3513 2838 3513 2113 
z
" transform="scale(0.015625)"/>
       </defs>
       <use xlink:href="#DejaVuSans-26"/>
       <use xlink:href="#DejaVuSans-52" transform="translate(69.828125 0)"/>
       <use xlink:href="#DejaVuSans-50" transform="translate(131.015625 0)"/>
       <use xlink:href="#DejaVuSans-53" transform="translate(228.421875 0)"/>
       <use xlink:href="#DejaVuSans-44" transform="translate(291.90625 0)"/>
       <use xlink:href="#DejaVuSans-55" transform="translate(353.1875 0)"/>
       <use xlink:href="#DejaVuSans-4c" transform="translate(394.296875 0)"/>
       <use xlink:href="#DejaVuSans-56" transform="translate(422.078125 0)"/>
       <use xlink:href="#DejaVuSans-52" transform="translate(474.171875 0)"/>
       <use xlink:href="#DejaVuSans-51" transform="translate(535.359375 0)"/>
       <use xlink:href="#DejaVuSans-56" transform="translate(598.734375 0)"/>
      </g>
     </g>
    </g>
    <g id="xtick_4">
     <g id="line2d_4">
      <path d="M 141.093269 145.178027 
L 76.213774 234.476991 
" clip-path="url(#p4554534b58)" style="fill: none; stroke: #cccccc; stroke-opacity: 0.5; stroke-width: 0.8; stroke-linecap: square"/>
     </g>
     <g id="text_4">
      <!-- Enrichment -->
      <g transform="translate(47.848296 247.621862) scale(0.07 -0.07)">
       <defs>
        <path id="DejaVuSans-28" d="M 628 4666 
L 3578 4666 
L 3578 4134 
L 1259 4134 
L 1259 2753 
L 3481 2753 
L 3481 2222 
L 1259 2222 
L 1259 531 
L 3634 531 
L 3634 0 
L 628 0 
L 628 4666 
z
" transform="scale(0.015625)"/>
        <path id="DejaVuSans-46" d="M 3122 3366 
L 3122 2828 
Q 2878 2963 2633 3030 
Q 2388 3097 2138 3097 
Q 1578 3097 1268 2742 
Q 959 2388 959 1747 
Q 959 1106 1268 751 
Q 1578 397 2138 397 
Q 2388 397 2633 464 
Q 2878 531 3122 666 
L 3122 134 
Q 2881 22 2623 -34 
Q 2366 -91 2075 -91 
Q 1284 -91 818 406 
Q 353 903 353 1747 
Q 353 2603 823 3093 
Q 1294 3584 2113 3584 
Q 2378 3584 2631 3529 
Q 2884 3475 3122 3366 
z
" transform="scale(0.015625)"/>
        <path id="DejaVuSans-4b" d="M 3513 2113 
L 3513 0 
L 2938 0 
L 2938 2094 
Q 2938 2591 2744 2837 
Q 2550 3084 2163 3084 
Q 1697 3084 1428 2787 
Q 1159 2491 1159 1978 
L 1159 0 
L 581 0 
L 581 4863 
L 1159 4863 
L 1159 2956 
Q 1366 3272 1645 3428 
Q 1925 3584 2291 3584 
Q 2894 3584 3203 3211 
Q 3513 2838 3513 2113 
z
" transform="scale(0.015625)"/>
       </defs>
       <use xlink:href="#DejaVuSans-28"/>
       <use xlink:href="#DejaVuSans-51" transform="translate(63.1875 0)"/>
       <use xlink:href="#DejaVuSans-55" transform="translate(126.5625 0)"/>
       <use xlink:href="#DejaVuSans-4c" transform="translate(167.671875 0)"/>
       <use xlink:href="#DejaVuSans-46" transform="translate(195.453125 0)"/>
       <use xlink:href="#DejaVuSans-4b" transform="translate(250.4375 0)"/>
       <use xlink:href="#DejaVuSans-50" transform="translate(313.8125 0)"/>
       <use xlink:href="#DejaVuSans-48" transform="translate(411.21875 0)"/>
       <use xlink:href="#DejaVuSans-51" transform="translate(472.75 0)"/>
       <use xlink:href="#DejaVuSans-57" transform="translate(536.125 0)"/>
      </g>
     </g>
    </g>
    <g id="xtick_5">
     <g id="line2d_5">
      <path d="M 141.093269 145.178027 
L 36.116041 111.068858 
" clip-path="url(#p4554534b58)" style="fill: none; stroke: #cccccc; stroke-opacity: 0.5; stroke-width: 0.8; stroke-linecap: square"/>
     </g>
     <g id="text_5">
      <!-- Analyses -->
      <g transform="translate(7.2 108.561253) scale(0.07 -0.07)">
       <defs>
        <path id="DejaVuSans-24" d="M 2188 4044 
L 1331 1722 
L 3047 1722 
L 2188 4044 
z
M 1831 4666 
L 2547 4666 
L 4325 0 
L 3669 0 
L 3244 1197 
L 1141 1197 
L 716 0 
L 50 0 
L 1831 4666 
z
" transform="scale(0.015625)"/>
        <path id="DejaVuSans-4f" d="M 603 4863 
L 1178 4863 
L 1178 0 
L 603 0 
L 603 4863 
z
" transform="scale(0.015625)"/>
        <path id="DejaVuSans-5c" d="M 2059 -325 
Q 1816 -950 1584 -1140 
Q 1353 -1331 966 -1331 
L 506 -1331 
L 506 -850 
L 844 -850 
Q 1081 -850 1212 -737 
Q 1344 -625 1503 -206 
L 1606 56 
L 191 3500 
L 800 3500 
L 1894 763 
L 2988 3500 
L 3597 3500 
L 2059 -325 
z
" transform="scale(0.015625)"/>
       </defs>
       <use xlink:href="#DejaVuSans-24"/>
       <use xlink:href="#DejaVuSans-51" transform="translate(68.40625 0)"/>
       <use xlink:href="#DejaVuSans-44" transform="translate(131.78125 0)"/>
       <use xlink:href="#DejaVuSans-4f" transform="translate(193.0625 0)"/>
       <use xlink:href="#DejaVuSans-5c" transform="translate(220.84375 0)"/>
       <use xlink:href="#DejaVuSans-56" transform="translate(280.03125 0)"/>
       <use xlink:href="#DejaVuSans-48" transform="translate(332.125 0)"/>
       <use xlink:href="#DejaVuSans-56" transform="translate(393.65625 0)"/>
      </g>
     </g>
    </g>
   </g>
   <g id="matplotlib.axis_2">
    <g id="ytick_1">
     <g id="line2d_6">
      <path d="M 141.093269 120.091757 
C 144.387568 120.091757 147.649834 120.740662 150.693369 122.001336 
C 153.736905 123.262009 156.50252 125.109934 158.831941 127.439355 
C 161.161362 129.768776 163.009288 132.534392 164.269961 135.577927 
C 165.530635 138.621463 166.17954 141.883728 166.17954 145.178027 
C 166.17954 148.472326 165.530635 151.734592 164.269961 154.778127 
C 163.009288 157.821663 161.161362 160.587278 158.831941 162.916699 
C 156.50252 165.24612 153.736905 167.094046 150.693369 168.354719 
C 147.649834 169.615393 144.387568 170.264298 141.093269 170.264298 
C 137.798971 170.264298 134.536705 169.615393 131.493169 168.354719 
C 128.449634 167.094046 125.684019 165.24612 123.354597 162.916699 
C 121.025176 160.587278 119.177251 157.821663 117.916578 154.778127 
C 116.655904 151.734592 116.006999 148.472326 116.006999 145.178027 
C 116.006999 141.883728 116.655904 138.621463 117.916578 135.577927 
C 119.177251 132.534392 121.025176 129.768776 123.354597 127.439355 
C 125.684019 125.109934 128.449634 123.262009 131.493169 122.001336 
C 134.536705 120.740662 137.798971 120.091757 141.093269 120.091757 
" clip-path="url(#p4554534b58)" style="fill: none; stroke: #cccccc; stroke-opacity: 0.5; stroke-width: 0.8; stroke-linecap: square"/>
     </g>
     <g id="text_6">
      <!-- 25 -->
      <g style="fill: #888888" transform="translate(141.093269 118.650351) scale(0.06 -0.06)">
       <defs>
        <path id="DejaVuSans-15" d="M 1228 531 
L 3431 531 
L 3431 0 
L 469 0 
L 469 531 
Q 828 903 1448 1529 
Q 2069 2156 2228 2338 
Q 2531 2678 2651 2914 
Q 2772 3150 2772 3378 
Q 2772 3750 2511 3984 
Q 2250 4219 1831 4219 
Q 1534 4219 1204 4116 
Q 875 4013 500 3803 
L 500 4441 
Q 881 4594 1212 4672 
Q 1544 4750 1819 4750 
Q 2544 4750 2975 4387 
Q 3406 4025 3406 3419 
Q 3406 3131 3298 2873 
Q 3191 2616 2906 2266 
Q 2828 2175 2409 1742 
Q 1991 1309 1228 531 
z
" transform="scale(0.015625)"/>
        <path id="DejaVuSans-18" d="M 691 4666 
L 3169 4666 
L 3169 4134 
L 1269 4134 
L 1269 2991 
Q 1406 3038 1543 3061 
Q 1681 3084 1819 3084 
Q 2600 3084 3056 2656 
Q 3513 2228 3513 1497 
Q 3513 744 3044 326 
Q 2575 -91 1722 -91 
Q 1428 -91 1123 -41 
Q 819 9 494 109 
L 494 744 
Q 775 591 1075 516 
Q 1375 441 1709 441 
Q 2250 441 2565 725 
Q 2881 1009 2881 1497 
Q 2881 1984 2565 2268 
Q 2250 2553 1709 2553 
Q 1456 2553 1204 2497 
Q 953 2441 691 2322 
L 691 4666 
z
" transform="scale(0.015625)"/>
       </defs>
       <use xlink:href="#DejaVuSans-15"/>
       <use xlink:href="#DejaVuSans-18" transform="translate(63.625 0)"/>
      </g>
     </g>
    </g>
    <g id="ytick_2">
     <g id="line2d_7">
      <path d="M 141.093269 95.005487 
C 147.681867 95.005487 154.206399 96.303297 160.29347 98.824644 
C 166.38054 101.345991 171.911771 105.041841 176.570613 109.700683 
C 181.229455 114.359526 184.925306 119.890757 187.446653 125.977827 
C 189.968 132.064898 191.26581 138.58943 191.26581 145.178027 
C 191.26581 151.766625 189.968 158.291157 187.446653 164.378227 
C 184.925306 170.465298 181.229455 175.996529 176.570613 180.655371 
C 171.911771 185.314213 166.38054 189.010064 160.29347 191.531411 
C 154.206399 194.052758 147.681867 195.350568 141.093269 195.350568 
C 134.504672 195.350568 127.98014 194.052758 121.893069 191.531411 
C 115.805999 189.010064 110.274768 185.314213 105.615926 180.655371 
C 100.957083 175.996529 97.261233 170.465298 94.739886 164.378227 
C 92.218539 158.291157 90.920729 151.766625 90.920729 145.178027 
C 90.920729 138.58943 92.218539 132.064898 94.739886 125.977827 
C 97.261233 119.890757 100.957083 114.359526 105.615926 109.700683 
C 110.274768 105.041841 115.805999 101.345991 121.893069 98.824644 
C 127.98014 96.303297 134.504672 95.005487 141.093269 95.005487 
" clip-path="url(#p4554534b58)" style="fill: none; stroke: #cccccc; stroke-opacity: 0.5; stroke-width: 0.8; stroke-linecap: square"/>
     </g>
     <g id="text_7">
      <!-- 50 -->
      <g style="fill: #888888" transform="translate(141.093269 93.56408) scale(0.06 -0.06)">
       <defs>
        <path id="DejaVuSans-13" d="M 2034 4250 
Q 1547 4250 1301 3770 
Q 1056 3291 1056 2328 
Q 1056 1369 1301 889 
Q 1547 409 2034 409 
Q 2525 409 2770 889 
Q 3016 1369 3016 2328 
Q 3016 3291 2770 3770 
Q 2525 4250 2034 4250 
z
M 2034 4750 
Q 2819 4750 3233 4129 
Q 3647 3509 3647 2328 
Q 3647 1150 3233 529 
Q 2819 -91 2034 -91 
Q 1250 -91 836 529 
Q 422 1150 422 2328 
Q 422 3509 836 4129 
Q 1250 4750 2034 4750 
z
" transform="scale(0.015625)"/>
       </defs>
       <use xlink:href="#DejaVuSans-18"/>
       <use xlink:href="#DejaVuSans-13" transform="translate(63.625 0)"/>
      </g>
     </g>
    </g>
    <g id="ytick_3">
     <g id="line2d_8">
      <path d="M 141.093269 69.919216 
C 150.976166 69.919216 160.762964 71.865931 169.89357 75.647952 
C 179.024175 79.429973 187.321022 84.973748 194.309285 91.962012 
C 201.297548 98.950275 206.841324 107.247121 210.623345 116.377727 
C 214.405366 125.508333 216.352081 135.295131 216.352081 145.178027 
C 216.352081 155.060924 214.405366 164.847722 210.623345 173.978328 
C 206.841324 183.108933 201.297548 191.40578 194.309285 198.394043 
C 187.321022 205.382306 179.024175 210.926082 169.89357 214.708103 
C 160.762964 218.490123 150.976166 220.436839 141.093269 220.436839 
C 131.210373 220.436839 121.423575 218.490123 112.292969 214.708103 
C 103.162363 210.926082 94.865517 205.382306 87.877254 198.394043 
C 80.88899 191.40578 75.345215 183.108933 71.563194 173.978328 
C 67.781173 164.847722 65.834458 155.060924 65.834458 145.178027 
C 65.834458 135.295131 67.781173 125.508333 71.563194 116.377727 
C 75.345215 107.247121 80.88899 98.950275 87.877254 91.962012 
C 94.865517 84.973748 103.162363 79.429973 112.292969 75.647952 
C 121.423575 71.865931 131.210373 69.919216 141.093269 69.919216 
" clip-path="url(#p4554534b58)" style="fill: none; stroke: #cccccc; stroke-opacity: 0.5; stroke-width: 0.8; stroke-linecap: square"/>
     </g>
     <g id="text_8">
      <!-- 75 -->
      <g style="fill: #888888" transform="translate(141.093269 68.47781) scale(0.06 -0.06)">
       <defs>
        <path id="DejaVuSans-1a" d="M 525 4666 
L 3525 4666 
L 3525 4397 
L 1831 0 
L 1172 0 
L 2766 4134 
L 525 4134 
L 525 4666 
z
" transform="scale(0.015625)"/>
       </defs>
       <use xlink:href="#DejaVuSans-1a"/>
       <use xlink:href="#DejaVuSans-18" transform="translate(63.625 0)"/>
      </g>
     </g>
    </g>
    <g id="ytick_4">
     <g id="line2d_9">
      <path d="M 141.093269 44.832946 
C 154.270465 44.832946 167.319529 47.428566 179.49367 52.47126 
C 191.667811 57.513955 202.730273 64.905655 212.047957 74.22334 
C 221.365641 83.541024 228.757342 94.603486 233.800037 106.777627 
C 238.842731 118.951768 241.438351 132.000832 241.438351 145.178027 
C 241.438351 158.355223 238.842731 171.404287 233.800037 183.578428 
C 228.757342 195.752569 221.365641 206.815031 212.047957 216.132715 
C 202.730273 225.450399 191.667811 232.8421 179.49367 237.884794 
C 167.319529 242.927489 154.270465 245.523109 141.093269 245.523109 
C 127.916074 245.523109 114.86701 242.927489 102.692869 237.884794 
C 90.518728 232.8421 79.456266 225.450399 70.138582 216.132715 
C 60.820897 206.815031 53.429197 195.752569 48.386502 183.578428 
C 43.343808 171.404287 40.748188 158.355223 40.748188 145.178027 
C 40.748188 132.000832 43.343808 118.951768 48.386502 106.777627 
C 53.429197 94.603486 60.820897 83.541024 70.138582 74.22334 
C 79.456266 64.905655 90.518728 57.513955 102.692869 52.47126 
C 114.86701 47.428566 127.916074 44.832946 141.093269 44.832946 
" clip-path="url(#p4554534b58)" style="fill: none; stroke: #cccccc; stroke-opacity: 0.5; stroke-width: 0.8; stroke-linecap: square"/>
     </g>
     <g id="text_9">
      <!-- 100 -->
      <g style="fill: #888888" transform="translate(141.093269 43.391539) scale(0.06 -0.06)">
       <defs>
        <path id="DejaVuSans-14" d="M 794 531 
L 1825 531 
L 1825 4091 
L 703 3866 
L 703 4441 
L 1819 4666 
L 2450 4666 
L 2450 531 
L 3481 531 
L 3481 0 
L 794 0 
L 794 531 
z
" transform="scale(0.015625)"/>
       </defs>
       <use xlink:href="#DejaVuSans-14"/>
       <use xlink:href="#DejaVuSans-13" transform="translate(63.625 0)"/>
       <use xlink:href="#DejaVuSans-13" transform="translate(127.25 0)"/>
      </g>
     </g>
    </g>
   </g>
   <g id="line2d_10">
    <path d="M 141.093269 87.083506 
L 195.626894 127.458978 
L 172.852463 188.890807 
L 82.11191 226.358904 
L 79.591459 125.194878 
L 141.093269 87.083506 
" clip-path="url(#p4554534b58)" style="fill: none; stroke: #4c72b0; stroke-width: 2; stroke-linecap: square"/>
   </g>
   <g id="patch_4">
    <path d="M 141.093269 34.798437 
C 126.598354 34.798437 112.244384 37.65362 98.852829 43.200583 
C 85.461274 48.747547 73.292566 56.878418 63.043113 67.127871 
C 52.79366 77.377324 44.662789 89.546032 39.115826 102.937587 
C 33.568862 116.329142 30.71368 130.683112 30.71368 145.178027 
C 30.71368 159.672942 33.568862 174.026912 39.115826 187.418468 
C 44.662789 200.810023 52.79366 212.978731 63.043113 223.228184 
C 73.292566 233.477636 85.461274 241.608507 98.852829 247.155471 
C 112.244384 252.702435 126.598354 255.557617 141.093269 255.557617 
C 155.588184 255.557617 169.942154 252.702435 183.33371 247.155471 
C 196.725265 241.608507 208.893973 233.477636 219.143426 223.228184 
C 229.392879 212.978731 237.523749 200.810023 243.070713 187.418468 
C 248.617677 174.026912 251.472859 159.672942 251.472859 145.178027 
C 251.472859 130.683112 248.617677 116.329142 243.070713 102.937587 
C 237.523749 89.546032 229.392879 77.377324 219.143426 67.127871 
C 208.893973 56.878418 196.725265 48.747547 183.33371 43.200583 
C 169.942154 37.65362 155.588184 34.798437 141.093269 34.798437 
" style="fill: none; stroke: #000000; stroke-width: 0.8; stroke-linejoin: miter; stroke-linecap: square"/>
   </g>
   <g id="text_10">
    <!-- Hindu Mythology -->
    <g transform="translate(93.149519 14.798438) scale(0.1 -0.1)">
     <defs>
      <path id="DejaVuSans-Bold-2b" d="M 588 4666 
L 1791 4666 
L 1791 2888 
L 3566 2888 
L 3566 4666 
L 4769 4666 
L 4769 0 
L 3566 0 
L 3566 1978 
L 1791 1978 
L 1791 0 
L 588 0 
L 588 4666 
z
" transform="scale(0.015625)"/>
      <path id="DejaVuSans-Bold-4c" d="M 538 3500 
L 1656 3500 
L 1656 0 
L 538 0 
L 538 3500 
z
M 538 4863 
L 1656 4863 
L 1656 3950 
L 538 3950 
L 538 4863 
z
" transform="scale(0.015625)"/>
      <path id="DejaVuSans-Bold-51" d="M 4056 2131 
L 4056 0 
L 2931 0 
L 2931 347 
L 2931 1631 
Q 2931 2084 2911 2256 
Q 2891 2428 2841 2509 
Q 2775 2619 2662 2680 
Q 2550 2741 2406 2741 
Q 2056 2741 1856 2470 
Q 1656 2200 1656 1722 
L 1656 0 
L 538 0 
L 538 3500 
L 1656 3500 
L 1656 2988 
Q 1909 3294 2193 3439 
Q 2478 3584 2822 3584 
Q 3428 3584 3742 3212 
Q 4056 2841 4056 2131 
z
" transform="scale(0.015625)"/>
      <path id="DejaVuSans-Bold-47" d="M 2919 2988 
L 2919 4863 
L 4044 4863 
L 4044 0 
L 2919 0 
L 2919 506 
Q 2688 197 2409 53 
Q 2131 -91 1766 -91 
Q 1119 -91 703 423 
Q 288 938 288 1747 
Q 288 2556 703 3070 
Q 1119 3584 1766 3584 
Q 2128 3584 2408 3439 
Q 2688 3294 2919 2988 
z
M 2181 722 
Q 2541 722 2730 984 
Q 2919 1247 2919 1747 
Q 2919 2247 2730 2509 
Q 2541 2772 2181 2772 
Q 1825 2772 1636 2509 
Q 1447 2247 1447 1747 
Q 1447 1247 1636 984 
Q 1825 722 2181 722 
z
" transform="scale(0.015625)"/>
      <path id="DejaVuSans-Bold-58" d="M 500 1363 
L 500 3500 
L 1625 3500 
L 1625 3150 
Q 1625 2866 1622 2436 
Q 1619 2006 1619 1863 
Q 1619 1441 1641 1255 
Q 1663 1069 1716 984 
Q 1784 875 1895 815 
Q 2006 756 2150 756 
Q 2500 756 2700 1025 
Q 2900 1294 2900 1772 
L 2900 3500 
L 4019 3500 
L 4019 0 
L 2900 0 
L 2900 506 
Q 2647 200 2364 54 
Q 2081 -91 1741 -91 
Q 1134 -91 817 281 
Q 500 653 500 1363 
z
" transform="scale(0.015625)"/>
      <path id="DejaVuSans-Bold-3" transform="scale(0.015625)"/>
      <path id="DejaVuSans-Bold-30" d="M 588 4666 
L 2119 4666 
L 3181 2169 
L 4250 4666 
L 5778 4666 
L 5778 0 
L 4641 0 
L 4641 3413 
L 3566 897 
L 2803 897 
L 1728 3413 
L 1728 0 
L 588 0 
L 588 4666 
z
" transform="scale(0.015625)"/>
      <path id="DejaVuSans-Bold-5c" d="M 78 3500 
L 1197 3500 
L 2138 1125 
L 2938 3500 
L 4056 3500 
L 2584 -331 
Q 2363 -916 2067 -1148 
Q 1772 -1381 1288 -1381 
L 641 -1381 
L 641 -647 
L 991 -647 
Q 1275 -647 1404 -556 
Q 1534 -466 1606 -231 
L 1638 -134 
L 78 3500 
z
" transform="scale(0.015625)"/>
      <path id="DejaVuSans-Bold-57" d="M 1759 4494 
L 1759 3500 
L 2913 3500 
L 2913 2700 
L 1759 2700 
L 1759 1216 
Q 1759 972 1856 886 
Q 1953 800 2241 800 
L 2816 800 
L 2816 0 
L 1856 0 
Q 1194 0 917 276 
Q 641 553 641 1216 
L 641 2700 
L 84 2700 
L 84 3500 
L 641 3500 
L 641 4494 
L 1759 4494 
z
" transform="scale(0.015625)"/>
      <path id="DejaVuSans-Bold-4b" d="M 4056 2131 
L 4056 0 
L 2931 0 
L 2931 347 
L 2931 1625 
Q 2931 2084 2911 2256 
Q 2891 2428 2841 2509 
Q 2775 2619 2662 2680 
Q 2550 2741 2406 2741 
Q 2056 2741 1856 2470 
Q 1656 2200 1656 1722 
L 1656 0 
L 538 0 
L 538 4863 
L 1656 4863 
L 1656 2988 
Q 1909 3294 2193 3439 
Q 2478 3584 2822 3584 
Q 3428 3584 3742 3212 
Q 4056 2841 4056 2131 
z
" transform="scale(0.015625)"/>
      <path id="DejaVuSans-Bold-52" d="M 2203 2784 
Q 1831 2784 1636 2517 
Q 1441 2250 1441 1747 
Q 1441 1244 1636 976 
Q 1831 709 2203 709 
Q 2569 709 2762 976 
Q 2956 1244 2956 1747 
Q 2956 2250 2762 2517 
Q 2569 2784 2203 2784 
z
M 2203 3584 
Q 3106 3584 3614 3096 
Q 4122 2609 4122 1747 
Q 4122 884 3614 396 
Q 3106 -91 2203 -91 
Q 1297 -91 786 396 
Q 275 884 275 1747 
Q 275 2609 786 3096 
Q 1297 3584 2203 3584 
z
" transform="scale(0.015625)"/>
      <path id="DejaVuSans-Bold-4f" d="M 538 4863 
L 1656 4863 
L 1656 0 
L 538 0 
L 538 4863 
z
" transform="scale(0.015625)"/>
      <path id="DejaVuSans-Bold-4a" d="M 2919 594 
Q 2688 288 2409 144 
Q 2131 0 1766 0 
Q 1125 0 706 504 
Q 288 1009 288 1791 
Q 288 2575 706 3076 
Q 1125 3578 1766 3578 
Q 2131 3578 2409 3434 
Q 2688 3291 2919 2981 
L 2919 3500 
L 4044 3500 
L 4044 353 
Q 4044 -491 3511 -936 
Q 2978 -1381 1966 -1381 
Q 1638 -1381 1331 -1331 
Q 1025 -1281 716 -1178 
L 716 -306 
Q 1009 -475 1290 -558 
Q 1572 -641 1856 -641 
Q 2406 -641 2662 -400 
Q 2919 -159 2919 353 
L 2919 594 
z
M 2181 2772 
Q 1834 2772 1640 2515 
Q 1447 2259 1447 1791 
Q 1447 1309 1634 1061 
Q 1822 813 2181 813 
Q 2531 813 2725 1069 
Q 2919 1325 2919 1791 
Q 2919 2259 2725 2515 
Q 2531 2772 2181 2772 
z
" transform="scale(0.015625)"/>
     </defs>
     <use xlink:href="#DejaVuSans-Bold-2b"/>
     <use xlink:href="#DejaVuSans-Bold-4c" transform="translate(83.6875 0)"/>
     <use xlink:href="#DejaVuSans-Bold-51" transform="translate(117.96875 0)"/>
     <use xlink:href="#DejaVuSans-Bold-47" transform="translate(189.15625 0)"/>
     <use xlink:href="#DejaVuSans-Bold-58" transform="translate(260.734375 0)"/>
     <use xlink:href="#DejaVuSans-Bold-3" transform="translate(331.921875 0)"/>
     <use xlink:href="#DejaVuSans-Bold-30" transform="translate(366.734375 0)"/>
     <use xlink:href="#DejaVuSans-Bold-5c" transform="translate(466.25 0)"/>
     <use xlink:href="#DejaVuSans-Bold-57" transform="translate(531.4375 0)"/>
     <use xlink:href="#DejaVuSans-Bold-4b" transform="translate(579.234375 0)"/>
     <use xlink:href="#DejaVuSans-Bold-52" transform="translate(650.421875 0)"/>
     <use xlink:href="#DejaVuSans-Bold-4f" transform="translate(719.125 0)"/>
     <use xlink:href="#DejaVuSans-Bold-52" transform="translate(753.40625 0)"/>
     <use xlink:href="#DejaVuSans-Bold-4a" transform="translate(822.109375 0)"/>
     <use xlink:href="#DejaVuSans-Bold-5c" transform="translate(893.6875 0)"/>
    </g>
   </g>
  </g>
 </g>
 <defs>
  <clipPath id="p4554534b58">
   <path d="M 251.472859 145.178027 
C 251.472859 130.683112 248.617677 116.329142 243.070713 102.937587 
C 237.523749 89.546032 229.392879 77.377324 219.143426 67.127871 
C 208.893973 56.878418 196.725265 48.747547 183.33371 43.200583 
C 169.942154 37.65362 155.588184 34.798438 141.093269 34.798438 
C 126.598354 34.798438 112.244384 37.65362 98.852829 43.200583 
C 85.461274 48.747547 73.292566 56.878418 63.043113 67.127871 
C 52.79366 77.377324 44.662789 89.546032 39.115826 102.937587 
C 33.568862 116.329142 30.71368 130.683112 30.71368 145.178027 
C 30.71368 159.672942 33.568862 174.026912 39.115826 187.418468 
C 44.662789 200.810023 52.79366 212.978731 63.043113 223.228184 
C 73.292566 233.477636 85.461274 241.608507 98.852829 247.155471 
C 112.244384 252.702435 126.598354 255.557617 141.093269 255.557617 
C 155.588184 255.557617 169.942154 252.702435 183.33371 247.155471 
C 196.725265 241.608507 208.893973 233.477636 219.143426 223.228184 
C 229.392879 212.978731 237.523749 200.810023 243.070713 187.418468 
C 248.617677 174.026912 251.472859 159.672942 251.472859 145.178027 
M 141.093269 145.178027 
C 141.093269 145.178027 141.093269 145.178027 141.093269 145.178027 
C 141.093269 145.178027 141.093269 145.178027 141.093269 145.178027 
C 141.093269 145.178027 141.093269 145.178027 141.093269 145.178027 
C 141.093269 145.178027 141.093269 145.178027 141.093269 145.178027 
C 141.093269 145.178027 141.093269 145.178027 141.093269 145.178027 
C 141.093269 145.178027 141.093269 145.178027 141.093269 145.178027 
C 141.093269 145.178027 141.093269 145.178027 141.093269 145.178027 
C 141.093269 145.178027 141.093269 145.178027 141.093269 145.178027 
C 141.093269 145.178027 141.093269 145.178027 141.093269 145.178027 
C 141.093269 145.178027 141.093269 145.178027 141.093269 145.178027 
C 141.093269 145.178027 141.093269 145.178027 141.093269 145.178027 
C 141.093269 145.178027 141.093269 145.178027 141.093269 145.178027 
C 141.093269 145.178027 141.093269 145.178027 141.093269 145.178027 
C 141.093269 145.178027 141.093269 145.178027 141.093269 145.178027 
C 141.093269 145.178027 141.093269 145.178027 141.093269 145.178027 
C 141.093269 145.178027 141.093269 145.178027 141.093269 145.178027 
z
"/>
  </clipPath>
 </defs>
</svg>
